<?xml version="1.0" encoding="UTF-8"?>
<!DOCTYPE svg PUBLIC "-//W3C//DTD SVG 1.1//EN" "http://www.w3.org/Graphics/SVG/1.1/DTD/svg11.dtd">
<!-- Creator: CorelDRAW X6 -->
<svg xmlns="http://www.w3.org/2000/svg" xml:space="preserve" width="150%" height="150%" version="1.1" style="shape-rendering:geometricPrecision; text-rendering:geometricPrecision; image-rendering:optimizeQuality; fill-rule:evenodd; clip-rule:evenodd"
viewBox="0 0 3530 3242"
 xmlns:xlink="http://www.w3.org/1999/xlink">
 <defs>
  <style type="text/css">
   <![CDATA[
    .str0 {stroke:black;stroke-width:10.4173}
    .str1 {stroke:white;stroke-width:10.4173}
    .str2 {stroke:black;stroke-width:14.7638}
    .str3 {stroke:white;stroke-width:44.2913;stroke-linecap:round}
    .fil5 {fill:none}
    .fil6 {fill:black}
    .fil2 {fill:#333333}
    .fil0 {fill:#4D4D4D}
    .fil1 {fill:#669933}
    .fil3 {fill:#99CC33}
    .fil4 {fill:white}
   ]]>
  </style>
 </defs>
 <g id="spring_boot">
  <metadata id="CorelCorpID_0Corel-Layer"/>
  <rect class="fil0 str0" x="5" y="5" width="3519" height="3232"/>
  <g id="_786545824">
   <g id="the_boot">
    <path class="fil1 str1" d="M592 687c-58,-39 -69,-192 -87,-381 453,94 903,64 1352,0 -29,177 -30,298 -105,372 -74,74 -90,36 -141,35 -12,585 -105,625 -35,1207 16,131 157,234 281,280 358,135 616,225 994,285 132,21 179,140 205,230 -627,0 -1094,-42 -1720,-55 -178,-3 -516,48 -679,55 8,-159 -8,-320 24,-476 15,-75 114,-123 116,-200 11,-636 -52,-721 -77,-1357 -30,11 -91,30 -128,5z"/>
    <path class="fil2 str1" d="M657 2716c663,-116 1535,-28 2398,3l-8 184 -103 -1 -27 -104 -64 0 -17 104 -67 0 -34 -85 -67 0 -17 85 -64 0 -32 -101 -89 4 0 97 -94 0 -23 -97 -72 2 -30 82 -54 3 -25 -85 -104 -2 -5 87 -113 -6 -22 -79 -83 0 -17 79 -99 0 -34 -74 -77 0 -27 74 -107 0 -25 -70 -101 0 -33 70 -87 0 -28 -70 -103 0 -20 70 -124 3 -18 -64 -117 0 -27 67 -140 0c0,-59 0,-117 0,-176z"/>
   </g>
   <g id="spring_boot_logo">
    <path class="fil3 str2" d="M1101 1958l121 0 121 0c21,0 40,11 51,30l60 105 61 104c11,19 11,41 0,59l-61 105 -60 105c-11,19 -30,29 -51,29l-121 0 -121 0c-22,0 -40,-10 -51,-29l-61 -105 -60 -105c-11,-18 -11,-40 0,-59l60 -104 61 -105c11,-19 29,-30 51,-30z"/>
    <rect class="fil4" x="1201" y="2020" width="41.0669" height="206.699" rx="21" ry="9"/>
    <path class="fil5 str3" d="M1299 2092c49,28 79,80 79,136 0,86 -70,156 -156,156 -86,0 -156,-70 -156,-156 0,-56 30,-108 78,-136"/>
   </g>
   <g>
    <g>
     <ellipse class="fil4 str0" cx="969" cy="699" rx="147" ry="203"/>
     <circle class="fil6 str0" cx="1034" cy="668" r="80"/>
    </g>
    <g>
     <ellipse class="fil4 str0" cx="1357" cy="699" rx="147" ry="203"/>
     <circle class="fil6 str0" cx="1295" cy="758" r="80"/>
    </g>
    <path class="fil4 str0" d="M1523 983c-219,82 -449,87 -693,0l0 119c253,197 482,183 693,0l0 -119z"/>
    <path class="fil5 str0" d="M830 1042c264,148 490,127 693,0"/>
    <line class="fil5 str0" x1="897" y1="1005" x2="897" y2= "1149" />
    <line class="fil5 str0" x1="959" y1="1021" x2="959" y2= "1189" />
    <line class="fil5 str0" x1="1029" y1="1034" x2="1029" y2= "1216" />
    <line class="fil5 str0" x1="1098" y1="1043" x2="1098" y2= "1235" />
    <line class="fil5 str0" x1="1159" y1="1046" x2="1159" y2= "1244" />
    <line class="fil5 str0" x1="1213" y1="1046" x2="1213" y2= "1244" />
    <line class="fil5 str0" x1="1276" y1="1042" x2="1276" y2= "1235" />
    <line class="fil5 str0" x1="1340" y1="1033" x2="1340" y2= "1216" />
    <line class="fil5 str0" x1="1400" y1="1021" x2="1400" y2= "1188" />
    <line class="fil5 str0" x1="1463" y1="1004" x2="1463" y2= "1149" />
   </g>
  </g>
 </g>
</svg>
